<?xml version="1.0" encoding="UTF-8"?>
<svg xmlns="http://www.w3.org/2000/svg" xmlns:xlink="http://www.w3.org/1999/xlink" width="2300" height="2300" viewBox="0 0 2300 2300">
<defs>
<clipPath id="clip-0">
<path clip-rule="nonzero" d="M 1567 581 L 1833 581 L 1833 1022 L 1567 1022 Z M 1567 581 "/>
</clipPath>
<clipPath id="clip-1">
<path clip-rule="evenodd" d="M 1159.71875 429 C 1531.019531 429 1832.460938 727.109375 1832.460938 1094.308594 C 1832.460938 1461.496094 1531.019531 1759.609375 1159.71875 1759.609375 C 788.425781 1759.609375 486.980469 1461.496094 486.980469 1094.308594 C 486.980469 727.109375 788.425781 429 1159.71875 429 Z M 1159.71875 429 "/>
</clipPath>
<clipPath id="clip-2">
<path clip-rule="nonzero" d="M 608 429 L 1401 429 L 1401 940 L 608 940 Z M 608 429 "/>
</clipPath>
<clipPath id="clip-3">
<path clip-rule="evenodd" d="M 1159.71875 429 C 1531.019531 429 1832.460938 727.109375 1832.460938 1094.308594 C 1832.460938 1461.496094 1531.019531 1759.609375 1159.71875 1759.609375 C 788.425781 1759.609375 486.980469 1461.496094 486.980469 1094.308594 C 486.980469 727.109375 788.425781 429 1159.71875 429 Z M 1159.71875 429 "/>
</clipPath>
<clipPath id="clip-4">
<path clip-rule="nonzero" d="M 948 854 L 1568 854 L 1568 1678 L 948 1678 Z M 948 854 "/>
</clipPath>
<clipPath id="clip-5">
<path clip-rule="evenodd" d="M 1159.71875 429 C 1531.019531 429 1832.460938 727.109375 1832.460938 1094.308594 C 1832.460938 1461.496094 1531.019531 1759.609375 1159.71875 1759.609375 C 788.425781 1759.609375 486.980469 1461.496094 486.980469 1094.308594 C 486.980469 727.109375 788.425781 429 1159.71875 429 Z M 1159.71875 429 "/>
</clipPath>
<clipPath id="clip-6">
<path clip-rule="nonzero" d="M 532 724 L 699 724 L 699 1166 L 532 1166 Z M 532 724 "/>
</clipPath>
<clipPath id="clip-7">
<path clip-rule="evenodd" d="M 357.339844 1793.648438 C 328.742188 1887.523438 614.238281 1989.285156 674.070312 1914.457031 C 686.089844 1899.421875 699.742188 1672.703125 703.1875 1653.769531 C 720.640625 1557.8125 732.058594 1537.855469 759.898438 1445.179688 C 818.628906 1249.648438 807.238281 1215.71875 765.808594 1066.910156 C 756.859375 1034.769531 731.429688 1009.410156 732.316406 960.519531 C 733.261719 908.058594 760.726562 831.988281 755.957031 797 C 749.511719 749.738281 718.785156 734.519531 692.910156 745.78125 C 671.324219 755.160156 658.832031 770.769531 653.507812 779.269531 C 551.851562 941.558594 579.195312 1010.550781 572.566406 987.351562 C 566.023438 964.449219 561.664062 861.960938 645.617188 701.691406 C 660.324219 673.609375 729.632812 605.679688 736.113281 580.660156 C 759.320312 491.039062 700.792969 467.980469 661.390625 495.570312 C 595.039062 542.011719 536.015625 609.03125 479.890625 665.710938 C 355.234375 791.601562 316.613281 917.179688 326.464844 1025.539062 C 337.246094 1144.140625 394.710938 1322.1875 406.695312 1440.324219 C 415.046875 1522.648438 402.882812 1605.3125 376.53125 1683.433594 C 367.335938 1710.691406 367.992188 1758.675781 357.339844 1793.648438 Z M 357.339844 1793.648438 "/>
</clipPath>
<clipPath id="clip-8">
<path clip-rule="nonzero" d="M 325 484 L 760 484 L 760 1825 L 325 1825 Z M 325 484 "/>
</clipPath>
<clipPath id="clip-9">
<path clip-rule="evenodd" d="M 357.339844 1793.648438 C 328.742188 1887.523438 614.238281 1989.285156 674.070312 1914.457031 C 686.089844 1899.421875 699.742188 1672.703125 703.1875 1653.769531 C 720.640625 1557.8125 732.058594 1537.855469 759.898438 1445.179688 C 818.628906 1249.648438 807.238281 1215.71875 765.808594 1066.910156 C 756.859375 1034.769531 731.429688 1009.410156 732.316406 960.519531 C 733.261719 908.058594 760.726562 831.988281 755.957031 797 C 749.511719 749.738281 718.785156 734.519531 692.910156 745.78125 C 671.324219 755.160156 658.832031 770.769531 653.507812 779.269531 C 551.851562 941.558594 579.195312 1010.550781 572.566406 987.351562 C 566.023438 964.449219 561.664062 861.960938 645.617188 701.691406 C 660.324219 673.609375 729.632812 605.679688 736.113281 580.660156 C 759.320312 491.039062 700.792969 467.980469 661.390625 495.570312 C 595.039062 542.011719 536.015625 609.03125 479.890625 665.710938 C 355.234375 791.601562 316.613281 917.179688 326.464844 1025.539062 C 337.246094 1144.140625 394.710938 1322.1875 406.695312 1440.324219 C 415.046875 1522.648438 402.882812 1605.3125 376.53125 1683.433594 C 367.335938 1710.691406 367.992188 1758.675781 357.339844 1793.648438 Z M 357.339844 1793.648438 "/>
</clipPath>
<clipPath id="clip-10">
<path clip-rule="nonzero" d="M 1620 724 L 1787 724 L 1787 1166 L 1620 1166 Z M 1620 724 "/>
</clipPath>
<clipPath id="clip-11">
<path clip-rule="evenodd" d="M 1962.101562 1793.648438 C 1990.699219 1887.523438 1705.199219 1989.285156 1645.371094 1914.457031 C 1633.351562 1899.421875 1619.699219 1672.703125 1616.25 1653.769531 C 1598.800781 1557.8125 1587.378906 1537.855469 1559.539062 1445.179688 C 1500.808594 1249.648438 1512.199219 1215.71875 1553.628906 1066.910156 C 1562.578125 1034.769531 1588.011719 1009.410156 1587.128906 960.519531 C 1586.179688 908.058594 1558.710938 831.988281 1563.488281 797 C 1569.929688 749.738281 1600.660156 734.519531 1626.53125 745.78125 C 1648.121094 755.160156 1660.609375 770.769531 1665.929688 779.269531 C 1767.589844 941.558594 1740.25 1010.550781 1746.878906 987.351562 C 1753.421875 964.449219 1757.78125 861.960938 1673.820312 701.691406 C 1659.121094 673.609375 1589.808594 605.679688 1583.328125 580.660156 C 1560.121094 491.039062 1618.648438 467.980469 1658.050781 495.570312 C 1724.398438 542.011719 1783.429688 609.03125 1839.550781 665.710938 C 1964.210938 791.601562 2002.828125 917.179688 1992.980469 1025.539062 C 1982.191406 1144.140625 1924.730469 1322.1875 1912.75 1440.324219 C 1904.390625 1522.648438 1916.558594 1605.3125 1942.910156 1683.433594 C 1952.101562 1710.691406 1951.449219 1758.675781 1962.101562 1793.648438 Z M 1962.101562 1793.648438 "/>
</clipPath>
<clipPath id="clip-12">
<path clip-rule="nonzero" d="M 1559 484 L 1995 484 L 1995 1825 L 1559 1825 Z M 1559 484 "/>
</clipPath>
<clipPath id="clip-13">
<path clip-rule="evenodd" d="M 1962.101562 1793.648438 C 1990.699219 1887.523438 1705.199219 1989.285156 1645.371094 1914.457031 C 1633.351562 1899.421875 1619.699219 1672.703125 1616.25 1653.769531 C 1598.800781 1557.8125 1587.378906 1537.855469 1559.539062 1445.179688 C 1500.808594 1249.648438 1512.199219 1215.71875 1553.628906 1066.910156 C 1562.578125 1034.769531 1588.011719 1009.410156 1587.128906 960.519531 C 1586.179688 908.058594 1558.710938 831.988281 1563.488281 797 C 1569.929688 749.738281 1600.660156 734.519531 1626.53125 745.78125 C 1648.121094 755.160156 1660.609375 770.769531 1665.929688 779.269531 C 1767.589844 941.558594 1740.25 1010.550781 1746.878906 987.351562 C 1753.421875 964.449219 1757.78125 861.960938 1673.820312 701.691406 C 1659.121094 673.609375 1589.808594 605.679688 1583.328125 580.660156 C 1560.121094 491.039062 1618.648438 467.980469 1658.050781 495.570312 C 1724.398438 542.011719 1783.429688 609.03125 1839.550781 665.710938 C 1964.210938 791.601562 2002.828125 917.179688 1992.980469 1025.539062 C 1982.191406 1144.140625 1924.730469 1322.1875 1912.75 1440.324219 C 1904.390625 1522.648438 1916.558594 1605.3125 1942.910156 1683.433594 C 1952.101562 1710.691406 1951.449219 1758.675781 1962.101562 1793.648438 Z M 1962.101562 1793.648438 "/>
</clipPath>
</defs>
<rect x="-230" y="-230" width="2760" height="2760" fill="rgb(100%, 100%, 100%)" fill-opacity="1"/>
<path fill-rule="evenodd" fill="rgb(42.405701%, 82.03125%, 93.75%)" fill-opacity="1" d="M 1159.71875 429 C 1531.019531 429 1832.460938 727.109375 1832.460938 1094.308594 C 1832.460938 1461.496094 1531.019531 1759.609375 1159.71875 1759.609375 C 788.425781 1759.609375 486.980469 1461.496094 486.980469 1094.308594 C 486.980469 727.109375 788.425781 429 1159.71875 429 "/>
<g clip-path="url(#clip-0)">
<g clip-path="url(#clip-1)">
<path fill-rule="evenodd" fill="rgb(0%, 67.576599%, 55.664062%)" fill-opacity="1" d="M 1586.988281 581.070312 C 1557.019531 582.621094 1569.988281 629.371094 1571.578125 640 C 1582.140625 710.371094 1557.199219 819.070312 1587.011719 882.230469 C 1603.769531 917.730469 1665.519531 963.628906 1703.519531 990.808594 C 1802.839844 1061.839844 1836.230469 998.511719 1832.128906 901.941406 C 1830.410156 861.480469 1822.640625 820.949219 1807.078125 781.699219 C 1785.308594 726.78125 1638.71875 627.441406 1586.988281 581.070312 "/>
</g>
</g>
<g clip-path="url(#clip-2)">
<g clip-path="url(#clip-3)">
<path fill-rule="evenodd" fill="rgb(0%, 67.576599%, 55.664062%)" fill-opacity="1" d="M 757.351562 427.628906 C 758.78125 420.359375 743.460938 434.390625 737.28125 438.871094 C 716.539062 453.890625 697.707031 471.691406 681.3125 490.941406 C 637.121094 542.839844 607.792969 614.089844 608.511719 681.328125 C 608.875 715.210938 610.285156 759.800781 638.09375 785.148438 C 638.429688 785.449219 658.179688 733.738281 665.507812 739.96875 C 687.234375 758.429688 686.996094 804.421875 704.320312 828.199219 C 723.542969 854.570312 881.695312 945.710938 911.601562 938.820312 C 923.609375 936.050781 934.097656 926.648438 936.148438 914.828125 C 940.988281 886.910156 921.550781 854.328125 923.070312 824.398438 C 923.535156 815.21875 925.652344 802.25 917.617188 795.210938 C 889.074219 770.210938 828.730469 797.570312 796.074219 770.820312 C 779.199219 757 776.480469 730.179688 792.714844 714.710938 C 800.214844 707.558594 907.789062 681.941406 931.464844 673.660156 C 936.1875 672.011719 941.007812 670.699219 945.171875 674.199219 C 963.402344 689.511719 978.96875 765.921875 1008.460938 761.828125 C 1039.609375 757.5 1028.289062 680.960938 1035.101562 659.800781 C 1042.660156 636.359375 1067.628906 638.691406 1085.460938 626.679688 C 1112.019531 608.78125 1116.960938 573.378906 1146.511719 555.511719 C 1198.761719 523.921875 1429.351562 577.921875 1397.78125 443.101562 C 1386.050781 393.039062 1308.488281 381.449219 1266.511719 371.53125 C 1122.148438 337.390625 973.152344 337.550781 831.109375 380.460938 "/>
</g>
</g>
<g clip-path="url(#clip-4)">
<g clip-path="url(#clip-5)">
<path fill-rule="evenodd" fill="rgb(0%, 67.576599%, 55.664062%)" fill-opacity="1" d="M 1024.648438 1246.691406 C 998.378906 1237.628906 983.765625 1180.730469 975.507812 1158.921875 C 923.421875 1021.359375 946.792969 976.898438 1052.339844 885.109375 C 1125.878906 821.160156 1198.511719 874.089844 1273.761719 898.570312 C 1314.648438 911.859375 1353.539062 911.78125 1388.558594 941.011719 C 1419.730469 967.050781 1430.75 1007.988281 1459.929688 1035.511719 C 1498.109375 1071.519531 1556.339844 1073.808594 1566.550781 1136.328125 C 1576.460938 1197.058594 1500.628906 1333.761719 1452.148438 1368.230469 C 1424.238281 1388.074219 1382.339844 1392.332031 1359.101562 1418.210938 C 1340.558594 1438.863281 1360.390625 1487.519531 1349.738281 1513.769531 C 1335.800781 1548.148438 1281.851562 1563.167969 1254.589844 1584.007812 C 1215.621094 1613.785156 1131.03125 1701.992188 1076 1671.167969 C 1039.5 1650.71875 1063.921875 1571.894531 1069.679688 1542.023438 C 1098.910156 1390.425781 1103.871094 1378.519531 1024.648438 1246.691406 "/>
</g>
</g>
<path fill-rule="evenodd" fill="rgb(100%, 83.006287%, 76.951599%)" fill-opacity="1" d="M 357.339844 1793.648438 C 328.742188 1887.523438 614.238281 1989.285156 674.070312 1914.457031 C 686.089844 1899.421875 699.742188 1672.703125 703.1875 1653.769531 C 720.640625 1557.8125 732.058594 1537.855469 759.898438 1445.179688 C 818.628906 1249.648438 807.238281 1215.71875 765.808594 1066.910156 C 756.859375 1034.769531 731.429688 1009.410156 732.316406 960.519531 C 733.261719 908.058594 760.726562 831.988281 755.957031 797 C 749.511719 749.738281 718.785156 734.519531 692.910156 745.78125 C 671.324219 755.160156 658.832031 770.769531 653.507812 779.269531 C 551.851562 941.558594 579.195312 1010.550781 572.566406 987.351562 C 566.023438 964.449219 561.664062 861.960938 645.617188 701.691406 C 660.324219 673.609375 729.632812 605.679688 736.113281 580.660156 C 759.320312 491.039062 700.792969 467.980469 661.390625 495.570312 C 595.039062 542.011719 536.015625 609.03125 479.890625 665.710938 C 355.234375 791.601562 316.613281 917.179688 326.464844 1025.539062 C 337.246094 1144.140625 394.710938 1322.1875 406.695312 1440.324219 C 415.046875 1522.648438 402.882812 1605.3125 376.53125 1683.433594 C 367.335938 1710.691406 367.992188 1758.675781 357.339844 1793.648438 "/>
<g clip-path="url(#clip-6)">
<g clip-path="url(#clip-7)">
<path fill-rule="evenodd" fill="rgb(100%, 68.943787%, 59.568787%)" fill-opacity="1" d="M 692.5 733.308594 C 691.335938 732.371094 600.914062 848.878906 595.464844 1045.140625 C 595.148438 1056.390625 619.054688 1171.53125 592.097656 1165.421875 C 564.765625 1159.21875 550.824219 1088.828125 544.21875 1064.761719 C 526.925781 1001.761719 530.371094 946.910156 544.578125 900.710938 C 587.652344 760.660156 729.648438 700.191406 692.5 733.308594 "/>
</g>
</g>
<g clip-path="url(#clip-8)">
<g clip-path="url(#clip-9)">
<path fill-rule="evenodd" fill="rgb(100%, 68.943787%, 59.568787%)" fill-opacity="1" d="M 339.152344 1824.460938 C 353.519531 1824.386719 414.625 1642.523438 420.222656 1620.878906 C 486.609375 1364.269531 372.671875 1266.480469 381.761719 1034.230469 C 382.933594 1004.300781 378.457031 876.328125 445 761.660156 C 506.539062 655.601562 600.914062 565.398438 661.972656 529.421875 C 682.738281 517.179688 716.964844 507.179688 750.046875 503.449219 C 773.390625 500.808594 752.925781 443.601562 696.050781 440.398438 C 651.816406 437.921875 571.566406 487.921875 562.945312 493.960938 C 454.613281 569.820312 370.734375 674.949219 318.902344 796.390625 C 268.667969 914.078125 262.855469 1042.980469 255.5 1168.980469 C 248.148438 1294.941406 212.527344 1697.460938 296.699219 1797.308594 "/>
</g>
</g>
<path fill-rule="evenodd" fill="rgb(100%, 83.006287%, 76.951599%)" fill-opacity="1" d="M 1962.101562 1793.648438 C 1990.699219 1887.523438 1705.199219 1989.285156 1645.371094 1914.457031 C 1633.351562 1899.421875 1619.699219 1672.703125 1616.25 1653.769531 C 1598.800781 1557.8125 1587.378906 1537.855469 1559.539062 1445.179688 C 1500.808594 1249.648438 1512.199219 1215.71875 1553.628906 1066.910156 C 1562.578125 1034.769531 1588.011719 1009.410156 1587.128906 960.519531 C 1586.179688 908.058594 1558.710938 831.988281 1563.488281 797 C 1569.929688 749.738281 1600.660156 734.519531 1626.53125 745.78125 C 1648.121094 755.160156 1660.609375 770.769531 1665.929688 779.269531 C 1767.589844 941.558594 1740.25 1010.550781 1746.878906 987.351562 C 1753.421875 964.449219 1757.78125 861.960938 1673.820312 701.691406 C 1659.121094 673.609375 1589.808594 605.679688 1583.328125 580.660156 C 1560.121094 491.039062 1618.648438 467.980469 1658.050781 495.570312 C 1724.398438 542.011719 1783.429688 609.03125 1839.550781 665.710938 C 1964.210938 791.601562 2002.828125 917.179688 1992.980469 1025.539062 C 1982.191406 1144.140625 1924.730469 1322.1875 1912.75 1440.324219 C 1904.390625 1522.648438 1916.558594 1605.3125 1942.910156 1683.433594 C 1952.101562 1710.691406 1951.449219 1758.675781 1962.101562 1793.648438 "/>
<g clip-path="url(#clip-10)">
<g clip-path="url(#clip-11)">
<path fill-rule="evenodd" fill="rgb(100%, 68.943787%, 59.568787%)" fill-opacity="1" d="M 1626.941406 733.308594 C 1628.109375 732.371094 1718.53125 848.878906 1723.980469 1045.140625 C 1724.289062 1056.390625 1700.390625 1171.53125 1727.339844 1165.421875 C 1754.679688 1159.21875 1768.621094 1088.828125 1775.21875 1064.761719 C 1792.519531 1001.761719 1789.070312 946.910156 1774.859375 900.710938 C 1731.789062 760.660156 1589.789062 700.191406 1626.941406 733.308594 "/>
</g>
</g>
<g clip-path="url(#clip-12)">
<g clip-path="url(#clip-13)">
<path fill-rule="evenodd" fill="rgb(100%, 68.943787%, 59.568787%)" fill-opacity="1" d="M 1980.289062 1824.460938 C 1965.921875 1824.386719 1904.820312 1642.523438 1899.21875 1620.878906 C 1832.828125 1364.269531 1946.769531 1266.480469 1937.679688 1034.230469 C 1936.511719 1004.300781 1940.980469 876.328125 1874.441406 761.660156 C 1812.898438 655.601562 1718.53125 565.398438 1657.46875 529.421875 C 1636.699219 517.179688 1602.480469 507.179688 1569.390625 503.449219 C 1546.050781 500.808594 1566.519531 443.601562 1623.390625 440.398438 C 1667.621094 437.921875 1747.871094 487.921875 1756.5 493.960938 C 1864.828125 569.820312 1948.710938 674.949219 2000.539062 796.390625 C 2050.769531 914.078125 2056.589844 1042.980469 2063.941406 1168.980469 C 2071.289062 1294.941406 2106.910156 1697.460938 2022.738281 1797.308594 "/>
</g>
</g>
</svg>
